<?xml version="1.0" encoding="UTF-8" standalone="no"?>
<!DOCTYPE svg PUBLIC "-//W3C//DTD SVG 1.1//EN" "http://www.w3.org/Graphics/SVG/1.1/DTD/svg11.dtd">
<svg width="100%" height="100%" viewBox="0 0 917 849" version="1.1" xmlns="http://www.w3.org/2000/svg" xmlns:xlink="http://www.w3.org/1999/xlink" xml:space="preserve" xmlns:serif="http://www.serif.com/" style="fill-rule:evenodd;clip-rule:evenodd;stroke-linecap:round;stroke-linejoin:round;stroke-miterlimit:1.5;">
    <g transform="matrix(1,0,0,1,-25.7463,-61.2974)">
        <g transform="matrix(1.29333,0,0,1.25438,-4.80492,16.8507)">
            <rect x="23.622" y="35.433" width="708.661" height="676.054" style="fill:rgb(254,254,254);"/>
        </g>
        <g transform="matrix(0.857143,0,0,1,16.8729,0)">
            <path d="M118.11,118.11L944.882,118.11" style="fill:none;stroke:black;stroke-width:4.47px;"/>
        </g>
        <path d="M118.11,118.11L118.11,826.772" style="fill:none;stroke:black;stroke-width:4.17px;"/>
        <g transform="matrix(0.857143,0,0,1,16.8729,0)">
            <path d="M118.11,826.772L944.882,826.772" style="fill:none;stroke:black;stroke-width:4.47px;"/>
        </g>
        <path d="M236.22,118.11L236.22,826.772" style="fill:none;stroke:black;stroke-width:4.17px;"/>
        <path d="M354.331,118.11L354.331,826.772" style="fill:none;stroke:black;stroke-width:4.17px;"/>
        <path d="M472.441,118.11L472.441,826.772" style="fill:none;stroke:black;stroke-width:4.17px;"/>
        <path d="M590.551,118.11L590.551,826.772" style="fill:none;stroke:black;stroke-width:4.17px;"/>
        <path d="M708.661,118.11L708.661,826.772" style="fill:none;stroke:black;stroke-width:4.17px;"/>
        <path d="M826.772,118.11L826.772,826.772" style="fill:none;stroke:black;stroke-width:4.17px;"/>
        <g transform="matrix(0.857143,0,0,1,16.8729,0)">
            <path d="M944.882,236.22L118.11,236.22" style="fill:none;stroke:black;stroke-width:4.47px;"/>
        </g>
        <g transform="matrix(0.857143,0,0,1,16.8729,0)">
            <path d="M118.11,354.331L944.882,354.331" style="fill:none;stroke:black;stroke-width:4.47px;"/>
        </g>
        <g transform="matrix(0.857143,0,0,1,16.8729,0)">
            <path d="M118.11,472.441L944.882,472.441" style="fill:none;stroke:black;stroke-width:4.47px;"/>
        </g>
        <g transform="matrix(0.857143,0,0,1,16.8729,0)">
            <path d="M118.11,590.551L944.882,590.551" style="fill:none;stroke:black;stroke-width:4.47px;"/>
        </g>
        <g transform="matrix(0.857143,-1.96438e-17,-1.96438e-17,1,16.8729,0)">
            <path d="M118.11,708.661L944.882,708.661" style="fill:none;stroke:black;stroke-width:4.47px;"/>
        </g>
        <g transform="matrix(1,0,0,1,-3.53445,-15.0878)">
            <g transform="matrix(32.9775,0,0,32.9775,171.618,874.016)">
            </g>
            <text x="70.866px" y="874.016px" style="font-family:'ArialMT', 'Arial', sans-serif;font-size:32.977px;">(x  ,y  )</text>
        </g>
        <g transform="matrix(1,0,0,1,680.554,0.95406)">
            <g transform="matrix(32.9775,0,0,32.9775,107.531,874.016)">
            </g>
            <text x="70.866px" y="874.016px" style="font-family:'ArialMT', 'Arial', sans-serif;font-size:32.977px;">∆x</text>
        </g>
        <g transform="matrix(1,0,0,1,786.877,-93.5341)">
            <g transform="matrix(32.9775,0,0,32.9775,107.531,874.016)">
            </g>
            <text x="70.866px" y="874.016px" style="font-family:'ArialMT', 'Arial', sans-serif;font-size:32.977px;">∆y</text>
        </g>
        <g transform="matrix(1,0,0,1,753.909,-770.993)">
            <g transform="matrix(32.9775,0,0,32.9775,171.618,874.016)">
            </g>
            <text x="70.866px" y="874.016px" style="font-family:'ArialMT', 'Arial', sans-serif;font-size:32.977px;">(x  ,y  )</text>
        </g>
        <g transform="matrix(1.47631,0,0,1.77757,-230.374,-371.282)">
            <ellipse cx="476.062" cy="474.648" rx="20.001" ry="16.611"/>
        </g>
        <g transform="matrix(1.47631,0,0,1.77757,-112.264,-371.282)">
            <ellipse cx="476.062" cy="474.648" rx="20.001" ry="16.611" style="fill:rgb(0,0,255);"/>
        </g>
        <g transform="matrix(1.47631,0,0,1.77757,-348.485,-371.282)">
            <ellipse cx="476.062" cy="474.648" rx="20.001" ry="16.611" style="fill:rgb(0,0,255);"/>
        </g>
        <g transform="matrix(1.47631,0,0,1.77757,-230.374,-489.392)">
            <ellipse cx="476.062" cy="474.648" rx="20.001" ry="16.611" style="fill:rgb(255,0,0);"/>
        </g>
        <g transform="matrix(1.47631,0,0,1.77757,-230.374,-253.172)">
            <ellipse cx="476.062" cy="474.648" rx="20.001" ry="16.611" style="fill:rgb(255,0,0);"/>
        </g>
        <g transform="matrix(41.6667,0,0,41.6667,526.153,323.069)">
        </g>
        <text x="496.063px" y="323.069px" style="font-family:'ArialMT', 'Arial', sans-serif;font-size:41.667px;">N</text>
        <g transform="matrix(1,0,0,1,-28.22,541.498)">
            <g transform="matrix(41.6667,0,0,41.6667,505.32,323.069)">
            </g>
            <text x="496.063px" y="323.069px" style="font-family:'ArialMT', 'Arial', sans-serif;font-size:41.667px;">i</text>
        </g>
        <g transform="matrix(1,0,0,1,69.7293,541.918)">
            <g transform="matrix(41.6667,0,0,41.6667,552.826,323.069)">
            </g>
            <text x="496.063px" y="323.069px" style="font-family:'ArialMT', 'Arial', sans-serif;font-size:41.667px;">i+1</text>
        </g>
        <g transform="matrix(1,0,0,1,-163.68,539.556)">
            <g transform="matrix(41.6667,0,0,41.6667,542.368,323.069)">
            </g>
            <text x="496.063px" y="323.069px" style="font-family:'ArialMT', 'Arial', sans-serif;font-size:41.667px;">i-1</text>
        </g>
        <g transform="matrix(1,0,0,1,2.73168,243.86)">
            <g transform="matrix(41.6667,0,0,41.6667,523.854,323.069)">
            </g>
            <text x="496.063px" y="323.069px" style="font-family:'ArialMT', 'Arial', sans-serif;font-size:41.667px;">S</text>
        </g>
        <g transform="matrix(1,0,0,1,126.809,125.75)">
            <g transform="matrix(41.6667,0,0,41.6667,523.854,323.069)">
            </g>
            <text x="496.063px" y="323.069px" style="font-family:'ArialMT', 'Arial', sans-serif;font-size:41.667px;">E</text>
        </g>
        <g transform="matrix(1,0,0,1,-115.379,125.75)">
            <g transform="matrix(41.6667,0,0,41.6667,535.39,323.069)">
            </g>
            <text x="496.063px" y="323.069px" style="font-family:'ArialMT', 'Arial', sans-serif;font-size:41.667px;">W</text>
        </g>
        <g transform="matrix(1,0,0,1,0,125.75)">
            <g transform="matrix(41.6667,0,0,41.6667,528.473,323.069)">
            </g>
            <text x="496.063px" y="323.069px" style="font-family:'ArialMT', 'Arial', sans-serif;font-size:41.667px;">O</text>
        </g>
        <g transform="matrix(1,0,0,1,-450.688,46.2356)">
            <g transform="matrix(41.6667,0,0,41.6667,552.826,323.069)">
            </g>
            <text x="496.063px" y="323.069px" style="font-family:'ArialMT', 'Arial', sans-serif;font-size:41.667px;">j+1</text>
        </g>
        <g transform="matrix(1,0,0,1,-450.688,282.456)">
            <g transform="matrix(41.6667,0,0,41.6667,542.368,323.069)">
            </g>
            <text x="496.063px" y="323.069px" style="font-family:'ArialMT', 'Arial', sans-serif;font-size:41.667px;">j-1</text>
        </g>
        <g transform="matrix(1,0,0,1,-410.12,159.9)">
            <g transform="matrix(41.6667,0,0,41.6667,505.32,323.069)">
            </g>
            <text x="496.063px" y="323.069px" style="font-family:'ArialMT', 'Arial', sans-serif;font-size:41.667px;">j</text>
        </g>
        <g transform="matrix(1,0,0,1,-0.200473,-14.6482)">
            <g transform="matrix(18.1376,0,0,18.1376,868.217,131.102)">
            </g>
            <text x="855.118px" y="131.102px" style="font-family:'ArialMT', 'Arial', sans-serif;font-size:18.138px;">N</text>
        </g>
        <g transform="matrix(1,0,0,1,39.957,-14.1821)">
            <g transform="matrix(18.1376,0,0,18.1376,868.217,131.102)">
            </g>
            <text x="855.118px" y="131.102px" style="font-family:'ArialMT', 'Arial', sans-serif;font-size:18.138px;">N</text>
        </g>
        <g transform="matrix(1,0,0,1,-757.677,736.413)">
            <g transform="matrix(18.1376,0,0,18.1376,865.205,131.102)">
            </g>
            <text x="855.118px" y="131.102px" style="font-family:'ArialMT', 'Arial', sans-serif;font-size:18.138px;">0</text>
        </g>
        <g transform="matrix(1,0,0,1,-718.372,736.413)">
            <g transform="matrix(18.1376,0,0,18.1376,865.205,131.102)">
            </g>
            <text x="855.118px" y="131.102px" style="font-family:'ArialMT', 'Arial', sans-serif;font-size:18.138px;">0</text>
        </g>
    </g>
    <path d="M697.539,773.278L685.039,779.528L697.539,785.778L697.539,773.278Z"/>
    <path d="M788.525,773.278L801.025,779.528L788.525,785.778L788.525,773.278Z"/>
    <path d="M695.039,779.528L791.025,779.528" style="fill:none;stroke:black;stroke-width:4.17px;"/>
    <g transform="matrix(-8.26946e-16,-1,1,-8.26946e-16,35.4331,1448.39)">
        <g transform="matrix(-8.26946e-16,1,-1,-8.26946e-16,1448.39,-35.4331)">
            <path d="M808.711,750.85L814.961,763.35L821.211,750.85L808.711,750.85Z"/>
            <path d="M808.711,659.864L814.961,647.364L821.211,659.864L808.711,659.864Z"/>
            <path d="M814.961,753.35L814.961,657.364" style="fill:none;stroke:black;stroke-width:4.17px;"/>
        </g>
    </g>
</svg>
